M48
INCH
T1C0.0670
T2C0.0866
T3C0.1181
T4C0.1972
%
G90
G05
T1
X2.9724Y-2.6378
X3.4055Y-2.6378
X3.9764Y-2.874
X4.4094Y-2.874
X4.6457Y-3.6614
X4.7677Y-5.2254
X5.0787Y-3.6614
X5.2008Y-5.2254
X5.5472Y-3.1476
X5.7047Y-4.1713
X5.9803Y-3.1476
X6.1378Y-4.1713
X6.3543Y-2.498
X6.5118Y-3.5217
X6.7874Y-2.498
X6.9449Y-3.5217
X7.378Y-2.3996
X7.5354Y-3.4232
X7.811Y-2.3996
X7.9685Y-3.4232
X8.3622Y-2.7146
X8.5197Y-3.7382
X8.7953Y-2.7146
X8.9528Y-3.7382
T2
X2.7953Y-1.9882
X2.7953Y-5.5906
X3.9764Y-4.4488
X6.1417Y-3.622
X7.4404Y-4.3689
X9.1339Y-1.9882
X9.1339Y-5.0394
T3
X3.0866Y-2.4114
X3.3622Y-2.4528
X4.0906Y-2.6476
X4.3661Y-2.689
X4.7598Y-3.435
X4.8819Y-4.999
X5.0354Y-3.4764
X5.1575Y-5.0404
X5.6614Y-2.9213
X5.8189Y-3.9449
X5.937Y-2.9626
X6.0945Y-3.9862
X6.4685Y-2.2717
X6.626Y-3.2953
X6.7441Y-2.313
X6.9016Y-3.3366
X7.4921Y-2.1732
X7.6496Y-3.1969
X7.7677Y-2.2146
X7.9252Y-3.2382
X8.4764Y-2.4882
X8.6339Y-3.5118
X8.752Y-2.5295
X8.9094Y-3.5531
T4
X3.189Y-2.6378
X4.1929Y-2.874
X4.8622Y-3.6614
X4.9843Y-5.2254
X5.7638Y-3.1476
X5.9213Y-4.1713
X6.5709Y-2.498
X6.7283Y-3.5217
X7.5945Y-2.3996
X7.752Y-3.4232
X8.5787Y-2.7146
X8.7362Y-3.7382
T0
M30
