M48
INCH
T1C0.0118
T2C0.0315
T3C0.0433
T4C0.0500
T5C0.0866
%
G90
G05
T1
X3.4618Y-3.05
X3.4618Y-3.1287
X3.5406Y-3.05
X3.5406Y-3.1287
X3.6587Y-2.302
X3.6587Y-2.3807
X3.7374Y-2.302
X3.7374Y-2.3807
X4.0524Y-3.5618
X4.0524Y-3.6406
X4.1311Y-3.5618
X4.1311Y-3.6406
X4.2492Y-2.2232
X4.328Y-2.1445
X4.328Y-2.2232
X4.4067Y-2.0657
X4.4067Y-2.1445
X4.4067Y-2.2232
X4.4854Y-2.0657
X4.4854Y-2.1445
X4.4854Y-2.2232
X4.5642Y-2.0657
X4.5642Y-2.1445
X4.5642Y-2.2232
X4.5642Y-3.9161
X4.5642Y-3.9949
X4.6378Y-2.9843
X4.6429Y-3.9161
X4.6429Y-3.9949
X4.761Y-2.8531
X4.761Y-2.9319
X4.8398Y-2.8531
X4.8398Y-2.9319
X4.8398Y-3.1799
X4.9972Y-3.1681
X4.9972Y-3.2469
X5.076Y-3.1681
X5.076Y-3.2469
X5.1154Y-4.428
X5.1154Y-4.5067
X5.1941Y-4.428
X5.1941Y-4.5067
X5.3909Y-3.9161
X5.3909Y-3.9949
X5.4697Y-3.6406
X5.4697Y-3.7193
X5.4697Y-3.9161
X5.4697Y-3.9949
X5.5484Y-1.8689
X5.5484Y-1.9476
X5.5484Y-3.6406
X5.5484Y-3.7193
X5.6272Y-1.8689
X5.6272Y-1.9476
X5.9028Y-2.2626
X5.9028Y-2.3413
X5.9815Y-2.2626
X5.9815Y-2.3413
X6.0602Y-5.1575
X6.139Y-5.0972
X6.1783Y-3.1287
X6.1783Y-3.2075
X6.1783Y-4.9398
X6.1783Y-5.0185
X6.2571Y-3.1287
X6.2571Y-3.2075
X6.2571Y-4.9398
X6.2571Y-5.0185
X6.3752Y-3.9555
X6.3752Y-4.0343
X6.3873Y-5.2047
X6.3937Y-2.9685
X6.4539Y-3.9555
X6.4539Y-4.0343
X6.5453Y-3.0118
X6.6114Y-5.3335
X6.6114Y-5.4122
X6.6902Y-5.3335
X6.6902Y-5.4122
X6.9264Y-2.7744
X6.9264Y-2.8531
X7.0051Y-2.7744
X7.0051Y-2.8531
X7.1232Y-3.7193
X7.1232Y-3.798
X7.202Y-3.7193
X7.202Y-3.798
X7.5996Y-2.9319
X7.95Y-2.8138
X7.95Y-2.8925
X8.0287Y-2.8138
X8.0287Y-2.8925
X8.0681Y-3.7587
X8.0681Y-3.8374
X8.1075Y-2.1839
X8.1075Y-2.2626
X8.1469Y-3.7587
X8.1469Y-3.8374
X8.1862Y-2.1839
X8.1862Y-2.2626
X8.6193Y-5.176
X8.6193Y-5.2547
X8.698Y-5.176
X8.698Y-5.2547
T2
X4.7766Y-1.8504
X4.7766Y-1.9504
X4.7766Y-2.0504
X4.7766Y-2.1504
X4.7766Y-2.2504
X4.7766Y-2.3504
X4.7766Y-2.4504
X4.7766Y-2.5504
X4.7766Y-2.6504
X4.8766Y-2.6587
X4.9766Y-2.6587
X5.0766Y-2.6587
X5.1766Y-2.6587
X5.2766Y-2.6587
X5.3766Y-1.8504
X5.3766Y-1.9504
X5.3766Y-2.0504
X5.3766Y-2.1504
X5.3766Y-2.2504
X5.3766Y-2.3504
X5.3766Y-2.4504
X5.3766Y-2.5504
X5.3766Y-2.6504
T3
X6.9193Y-5.3839
X6.9193Y-5.561
X7.1752Y-5.3839
X7.1752Y-5.561
X7.313Y-5.3839
X7.313Y-5.561
X7.5689Y-5.3839
X7.5689Y-5.561
X7.7067Y-5.3839
X7.7067Y-5.561
X7.9626Y-5.3839
X7.9626Y-5.561
X8.1004Y-5.3839
X8.1004Y-5.561
X8.3563Y-5.3839
X8.3563Y-5.561
X8.4941Y-5.3839
X8.4941Y-5.561
X8.75Y-5.3839
X8.75Y-5.561
X8.8878Y-5.3839
X8.8878Y-5.561
X9.1437Y-5.3839
X9.1437Y-5.561
T4
X3.0866Y-2.8642
X3.3622Y-2.8228
X4.0906Y-3.1004
X4.3661Y-3.0591
X4.7598Y-3.8878
X4.8819Y-5.4518
X5.0354Y-3.8465
X5.1575Y-5.4104
X5.6614Y-3.374
X5.8189Y-4.3976
X5.937Y-3.3327
X6.0945Y-4.3563
X6.4685Y-2.7244
X6.626Y-3.748
X6.7441Y-2.6831
X6.9016Y-3.7067
X7.4921Y-2.626
X7.6496Y-3.6496
X7.7677Y-2.5846
X7.9252Y-3.6083
X8.4764Y-2.9409
X8.6339Y-3.9646
X8.752Y-2.8996
X8.9094Y-3.9232
T5
X6.0209Y-5.3728
T0
M30
