%TF.GenerationSoftware,KiCad,Pcbnew,7.0.6*%
%TF.CreationDate,2024-01-12T12:33:24+02:00*%
%TF.ProjectId,Flatbox-rev5,466c6174-626f-4782-9d72-6576352e6b69,rev?*%
%TF.SameCoordinates,Original*%
%TF.FileFunction,Soldermask,Bot*%
%TF.FilePolarity,Negative*%
%FSLAX46Y46*%
G04 Gerber Fmt 4.6, Leading zero omitted, Abs format (unit mm)*
G04 Created by KiCad (PCBNEW 7.0.6) date 2024-01-12 12:33:24*
%MOMM*%
%LPD*%
G01*
G04 APERTURE LIST*
G04 Aperture macros list*
%AMRoundRect*
0 Rectangle with rounded corners*
0 $1 Rounding radius*
0 $2 $3 $4 $5 $6 $7 $8 $9 X,Y pos of 4 corners*
0 Add a 4 corners polygon primitive as box body*
4,1,4,$2,$3,$4,$5,$6,$7,$8,$9,$2,$3,0*
0 Add four circle primitives for the rounded corners*
1,1,$1+$1,$2,$3*
1,1,$1+$1,$4,$5*
1,1,$1+$1,$6,$7*
1,1,$1+$1,$8,$9*
0 Add four rect primitives between the rounded corners*
20,1,$1+$1,$2,$3,$4,$5,0*
20,1,$1+$1,$4,$5,$6,$7,0*
20,1,$1+$1,$6,$7,$8,$9,0*
20,1,$1+$1,$8,$9,$2,$3,0*%
G04 Aperture macros list end*
%ADD10C,2.200000*%
%ADD11RoundRect,0.400000X-0.900000X-0.400000X0.900000X-0.400000X0.900000X0.400000X-0.900000X0.400000X0*%
%ADD12RoundRect,0.400050X-0.899950X-0.400050X0.899950X-0.400050X0.899950X0.400050X-0.899950X0.400050X0*%
%ADD13RoundRect,0.400000X-0.400000X-0.900000X0.400000X-0.900000X0.400000X0.900000X-0.400000X0.900000X0*%
%ADD14RoundRect,0.393700X-0.393700X-0.906300X0.393700X-0.906300X0.393700X0.906300X-0.393700X0.906300X0*%
%ADD15C,3.800000*%
%ADD16C,2.032000*%
%ADD17RoundRect,0.250000X1.000000X1.025000X-1.000000X1.025000X-1.000000X-1.025000X1.000000X-1.025000X0*%
%ADD18C,1.701800*%
%ADD19C,3.000000*%
%ADD20C,5.010000*%
%ADD21C,2.000000*%
G04 APERTURE END LIST*
D10*
%TO.C,H8*%
X188985687Y-110970000D03*
%TD*%
D11*
%TO.C,A1*%
X137165000Y-47000000D03*
X137165000Y-49540000D03*
X137165000Y-52080000D03*
X137165000Y-54620000D03*
X137165000Y-57160000D03*
D12*
X137165000Y-59700000D03*
X137165000Y-62240000D03*
X137165000Y-64780000D03*
X137165000Y-67320000D03*
D13*
X134025000Y-68130000D03*
D14*
X131485000Y-68130000D03*
X128945000Y-68130000D03*
X126405000Y-68130000D03*
X123865000Y-68130000D03*
D12*
X120725000Y-67320000D03*
X120725000Y-64780000D03*
X120725000Y-62240000D03*
X120725000Y-59700000D03*
X120725000Y-47000000D03*
X120725000Y-49540000D03*
X120725000Y-52080000D03*
X120725000Y-57160000D03*
X120725000Y-54620000D03*
%TD*%
D15*
%TO.C,Hadouken*%
X152930000Y-136470000D03*
%TD*%
D16*
%TO.C,SW7*%
X78400000Y-72750000D03*
D17*
X74725000Y-61250000D03*
X89075000Y-62300000D03*
D16*
X85400000Y-71700000D03*
D18*
X86500000Y-67000000D03*
D19*
X85400000Y-62300000D03*
D20*
X81000000Y-67000000D03*
D19*
X78400000Y-61250000D03*
D18*
X75500000Y-67000000D03*
%TD*%
D21*
%TO.C,SW4*%
X205750000Y-136750000D03*
X212250000Y-136750000D03*
X205750000Y-141250000D03*
X212250000Y-141250000D03*
%TD*%
%TO.C,SW2*%
X192250000Y-141250000D03*
X185750000Y-141250000D03*
X192250000Y-136750000D03*
X185750000Y-136750000D03*
%TD*%
%TO.C,SW5*%
X215750000Y-136750000D03*
X222250000Y-136750000D03*
X215750000Y-141250000D03*
X222250000Y-141250000D03*
%TD*%
%TO.C,SW1*%
X182250000Y-141250000D03*
X175750000Y-141250000D03*
X182250000Y-136750000D03*
X175750000Y-136750000D03*
%TD*%
%TO.C,SW3*%
X202250000Y-141250000D03*
X195750000Y-141250000D03*
X202250000Y-136750000D03*
X195750000Y-136750000D03*
%TD*%
%TO.C,SW6*%
X225750000Y-136750000D03*
X232250000Y-136750000D03*
X225750000Y-141250000D03*
X232250000Y-141250000D03*
%TD*%
D10*
%TO.C,H2*%
X71000000Y-142000000D03*
%TD*%
%TO.C,H7*%
X232000000Y-128000000D03*
%TD*%
D16*
%TO.C,SW17*%
X219300000Y-100700000D03*
D17*
X215625000Y-89200000D03*
X229975000Y-90250000D03*
D16*
X226300000Y-99650000D03*
D18*
X227400000Y-94950000D03*
D19*
X226300000Y-90250000D03*
D20*
X221900000Y-94950000D03*
D19*
X219300000Y-89200000D03*
D18*
X216400000Y-94950000D03*
%TD*%
D16*
%TO.C,SW18*%
X124000000Y-138475000D03*
D17*
X120325000Y-126975000D03*
X134675000Y-128025000D03*
D16*
X131000000Y-137425000D03*
D18*
X132100000Y-132725000D03*
D19*
X131000000Y-128025000D03*
D20*
X126600000Y-132725000D03*
D19*
X124000000Y-126975000D03*
D18*
X121100000Y-132725000D03*
%TD*%
D16*
%TO.C,SW14*%
X147800000Y-111700000D03*
D17*
X144125000Y-100200000D03*
X158475000Y-101250000D03*
D16*
X154800000Y-110650000D03*
D18*
X155900000Y-105950000D03*
D19*
X154800000Y-101250000D03*
D20*
X150400000Y-105950000D03*
D19*
X147800000Y-100200000D03*
D18*
X144900000Y-105950000D03*
%TD*%
D16*
%TO.C,SW12*%
X190300000Y-66700000D03*
D17*
X186625000Y-55200000D03*
X200975000Y-56250000D03*
D16*
X197300000Y-65650000D03*
D18*
X198400000Y-60950000D03*
D19*
X197300000Y-56250000D03*
D20*
X192900000Y-60950000D03*
D19*
X190300000Y-55200000D03*
D18*
X187400000Y-60950000D03*
%TD*%
D16*
%TO.C,SW13*%
X215300000Y-74700000D03*
D17*
X211625000Y-63200000D03*
X225975000Y-64250000D03*
D16*
X222300000Y-73650000D03*
D18*
X223400000Y-68950000D03*
D19*
X222300000Y-64250000D03*
D20*
X217900000Y-68950000D03*
D19*
X215300000Y-63200000D03*
D18*
X212400000Y-68950000D03*
%TD*%
D16*
%TO.C,SW9*%
X120900000Y-98750000D03*
D17*
X117225000Y-87250000D03*
X131575000Y-88300000D03*
D16*
X127900000Y-97700000D03*
D18*
X129000000Y-93000000D03*
D19*
X127900000Y-88300000D03*
D20*
X123500000Y-93000000D03*
D19*
X120900000Y-87250000D03*
D18*
X118000000Y-93000000D03*
%TD*%
D16*
%TO.C,SW8*%
X103900000Y-78750000D03*
D17*
X100225000Y-67250000D03*
X114575000Y-68300000D03*
D16*
X110900000Y-77700000D03*
D18*
X112000000Y-73000000D03*
D19*
X110900000Y-68300000D03*
D20*
X106500000Y-73000000D03*
D19*
X103900000Y-67250000D03*
D18*
X101000000Y-73000000D03*
%TD*%
D16*
%TO.C,SW10*%
X143800000Y-85700000D03*
D17*
X140125000Y-74200000D03*
X154475000Y-75250000D03*
D16*
X150800000Y-84650000D03*
D18*
X151900000Y-79950000D03*
D19*
X150800000Y-75250000D03*
D20*
X146400000Y-79950000D03*
D19*
X143800000Y-74200000D03*
D18*
X140900000Y-79950000D03*
%TD*%
D16*
%TO.C,SW15*%
X168300000Y-95200000D03*
D17*
X164625000Y-83700000D03*
X178975000Y-84750000D03*
D16*
X175300000Y-94150000D03*
D18*
X176400000Y-89450000D03*
D19*
X175300000Y-84750000D03*
D20*
X170900000Y-89450000D03*
D19*
X168300000Y-83700000D03*
D18*
X165400000Y-89450000D03*
%TD*%
D10*
%TO.C,H3*%
X232000000Y-50500000D03*
%TD*%
%TO.C,H5*%
X101000000Y-113000000D03*
%TD*%
D16*
%TO.C,SW16*%
X194300000Y-92700000D03*
D17*
X190625000Y-81200000D03*
X204975000Y-82250000D03*
D16*
X201300000Y-91650000D03*
D18*
X202400000Y-86950000D03*
D19*
X201300000Y-82250000D03*
D20*
X196900000Y-86950000D03*
D19*
X194300000Y-81200000D03*
D18*
X191400000Y-86950000D03*
%TD*%
D16*
%TO.C,SW11*%
X164300000Y-69200000D03*
D17*
X160625000Y-57700000D03*
X174975000Y-58750000D03*
D16*
X171300000Y-68150000D03*
D18*
X172400000Y-63450000D03*
D19*
X171300000Y-58750000D03*
D20*
X166900000Y-63450000D03*
D19*
X164300000Y-57700000D03*
D18*
X161400000Y-63450000D03*
%TD*%
D10*
%TO.C,H1*%
X71000000Y-50500000D03*
%TD*%
%TO.C,H6*%
X156000000Y-92000000D03*
%TD*%
M02*
